<svg width="19" height="16" viewBox="0 0 19 16" fill="none" xmlns="http://www.w3.org/2000/svg">
<path fill-rule="evenodd" clip-rule="evenodd" d="M11.3591 1.3038C13.1151 -0.442778 15.9409 -0.433375 17.6855 1.32486C19.4382 3.09135 19.4382 5.95538 17.6855 7.72184L9.80923 15.6597L9.47154 16L9.1325 15.661L6.07522 12.6037L6.75057 11.9178L6.78215 11.9494L12.8304 5.85379L13.5084 6.53708L7.46278 12.63L9.46885 14.6361L17.0075 7.03858C18.3858 5.64947 18.3858 3.39727 17.0075 2.00816C15.6355 0.625527 13.4135 0.618125 12.0326 1.99159L10.147 3.86699L9.80827 4.20884L4.12604 9.93548L3.78705 10.2771L3.44806 9.93548L1.31723 7.78803C-0.439077 6.01793 -0.439079 3.14811 1.31723 1.37807C3.07355 -0.391988 5.92109 -0.391988 7.67741 1.37807L9.46904 3.18367L11.3591 1.3038ZM1.99522 2.06136C0.613355 3.45404 0.613355 5.71202 1.99522 7.10465L3.78705 8.9105L8.79125 3.8672L6.99942 2.06136C5.61755 0.668673 3.3771 0.668682 1.99522 2.06136Z" fill="#333333"/>
</svg>
