<svg width="14" height="13" viewBox="0 0 14 13" fill="none" xmlns="http://www.w3.org/2000/svg">
<path d="M6.16357 5.84619C6.16357 6.40902 6.06201 6.94857 5.85889 7.46484C5.65576 7.97689 5.38704 8.41911 5.05273 8.7915C4.70996 9.17236 4.32275 9.47282 3.89111 9.69287C3.45947 9.90869 3.00244 10.0166 2.52002 10.0166C2.15609 10.0166 1.83447 9.98486 1.55518 9.92139C1.28011 9.86214 1.04525 9.77962 0.850586 9.67383C0.651693 9.5638 0.486654 9.44108 0.355469 9.30566C0.224284 9.16602 0.105794 9.01156 0 8.84229L1.6377 1.65674C1.65885 1.55941 1.67578 1.47689 1.68848 1.40918C1.7054 1.33724 1.71387 1.2653 1.71387 1.19336C1.71387 1.04102 1.68848 0.924642 1.6377 0.844238C1.58691 0.759603 1.51497 0.696126 1.42188 0.653809C1.33301 0.615723 1.22087 0.590332 1.08545 0.577637C0.950033 0.564941 0.8125 0.55013 0.672852 0.533203L0.761719 0.145996L3.1167 0L3.18018 0.0952148L2.21533 4.31641H2.24072C2.62158 3.97786 2.95589 3.74512 3.24365 3.61816C3.53564 3.48698 3.81917 3.42139 4.09424 3.42139C4.73747 3.42139 5.24316 3.64144 5.61133 4.08154C5.97949 4.51742 6.16357 5.10563 6.16357 5.84619ZM4.85596 5.87793C4.85596 5.65365 4.8348 5.42936 4.79248 5.20508C4.75439 4.97656 4.6888 4.78613 4.5957 4.63379C4.49837 4.47298 4.36507 4.34603 4.1958 4.25293C4.02653 4.15983 3.81706 4.11328 3.56738 4.11328C3.41927 4.11328 3.27962 4.13867 3.14844 4.18945C3.01725 4.24023 2.88184 4.30794 2.74219 4.39258C2.61947 4.46875 2.49886 4.56185 2.38037 4.67188C2.26611 4.77767 2.16032 4.87288 2.06299 4.95752L1.21875 8.72168C1.23145 8.80632 1.26953 8.89941 1.33301 9.00098C1.39648 9.10254 1.47689 9.19141 1.57422 9.26758C1.69271 9.36491 1.82601 9.43896 1.97412 9.48975C2.12223 9.54053 2.28516 9.56592 2.46289 9.56592C2.7972 9.56592 3.11035 9.46859 3.40234 9.27393C3.69857 9.07503 3.95247 8.80843 4.16406 8.47412C4.39681 8.11019 4.57031 7.70394 4.68457 7.25537C4.79883 6.8068 4.85596 6.34766 4.85596 5.87793ZM11.1592 8.90576H11.1211C10.7318 9.23161 10.3615 9.48763 10.0103 9.67383C9.65902 9.86003 9.25911 9.95312 8.81055 9.95312C8.4043 9.95312 8.08268 9.83675 7.8457 9.604C7.60872 9.36702 7.49023 9.05811 7.49023 8.67725C7.49023 8.57568 7.4987 8.45508 7.51562 8.31543C7.53255 8.17578 7.57275 7.96842 7.63623 7.69336L8.13135 5.71289C8.1779 5.52246 8.21387 5.35742 8.23926 5.21777C8.26465 5.07389 8.27734 4.93636 8.27734 4.80518C8.27734 4.5682 8.23714 4.41162 8.15674 4.33545C8.08057 4.25505 7.92188 4.21484 7.68066 4.21484C7.58757 4.21484 7.46908 4.23177 7.3252 4.26562C7.18132 4.29948 7.06917 4.32699 6.98877 4.34814L7.08398 3.94189C7.41406 3.79378 7.70394 3.68164 7.95361 3.60547C8.20752 3.5293 8.41064 3.49121 8.56299 3.49121C8.90153 3.49121 9.1512 3.56738 9.31201 3.71973C9.47705 3.87207 9.55957 4.10059 9.55957 4.40527C9.55957 4.48145 9.55111 4.58512 9.53418 4.71631C9.51725 4.84749 9.49186 4.97868 9.45801 5.10986L8.88037 7.42676C8.83805 7.60449 8.80208 7.77165 8.77246 7.92822C8.74284 8.08057 8.72803 8.19694 8.72803 8.27734C8.72803 8.56087 8.79574 8.78516 8.93115 8.9502C9.0708 9.11523 9.27393 9.19775 9.54053 9.19775C9.84945 9.19775 10.1499 9.12158 10.4419 8.96924C10.7381 8.81689 11.0153 8.60742 11.2734 8.34082L12.3271 3.59277L13.4253 3.5166L13.5015 3.61182L12.4097 8.58203C12.2489 9.3099 12.0436 9.93197 11.7939 10.4482C11.5443 10.9645 11.2523 11.3813 10.918 11.6987C10.5667 12.033 10.188 12.2743 9.78174 12.4224C9.37549 12.5705 8.91211 12.6445 8.3916 12.6445C8.0319 12.6445 7.74626 12.6191 7.53467 12.5684C7.32308 12.5176 7.15592 12.4478 7.0332 12.3589C6.91048 12.2743 6.82796 12.179 6.78564 12.0732C6.74333 11.9674 6.72217 11.8617 6.72217 11.7559C6.72217 11.5739 6.77718 11.4131 6.88721 11.2734C6.99723 11.1338 7.15592 11.064 7.36328 11.064C7.51986 11.064 7.65316 11.1084 7.76318 11.1973C7.87321 11.2861 7.96208 11.3835 8.02979 11.4893C8.10596 11.6035 8.17578 11.7326 8.23926 11.8765C8.30273 12.0203 8.35352 12.1346 8.3916 12.2192H8.54395C8.78516 12.2192 9.03906 12.16 9.30566 12.0415C9.5765 11.923 9.82406 11.7389 10.0483 11.4893C10.2896 11.2184 10.5054 10.8693 10.6958 10.4419C10.8905 10.0145 11.0449 9.50244 11.1592 8.90576Z" fill="#BBBBBB"/>
</svg>
