<svg width="67" height="12" viewBox="0 0 67 12" fill="none" xmlns="http://www.w3.org/2000/svg">
<path d="M7.76367 0.755859L7.24219 3.01172H6.83789C6.83398 2.875 6.81445 2.70117 6.7793 2.49023C6.74805 2.2793 6.70117 2.08984 6.63867 1.92188C6.57227 1.74219 6.48438 1.58789 6.375 1.45898C6.26953 1.33008 6.14258 1.25391 5.99414 1.23047C5.87695 1.21484 5.72656 1.20312 5.54297 1.19531C5.36328 1.1875 5.19531 1.18359 5.03906 1.18359H4.66992L3.12305 7.89258C3.11523 7.92383 3.10938 7.95898 3.10547 7.99805C3.10156 8.0332 3.09961 8.06836 3.09961 8.10352C3.09961 8.19727 3.11719 8.27539 3.15234 8.33789C3.1875 8.39648 3.25391 8.44922 3.35156 8.49609C3.42969 8.52734 3.57031 8.56641 3.77344 8.61328C3.98047 8.65625 4.14844 8.67969 4.27734 8.68359L4.18359 9.07031H0.257812L0.351562 8.68359C0.46875 8.67578 0.638672 8.66016 0.861328 8.63672C1.08398 8.61328 1.24609 8.58398 1.34766 8.54883C1.50391 8.49023 1.62109 8.41016 1.69922 8.30859C1.77734 8.20703 1.83203 8.08594 1.86328 7.94531L3.42188 1.18359H3.11133C2.99414 1.18359 2.84766 1.1875 2.67188 1.19531C2.49609 1.19922 2.31641 1.21094 2.13281 1.23047C2.00391 1.24609 1.85352 1.32422 1.68164 1.46484C1.50977 1.60156 1.33789 1.76367 1.16602 1.95117C1.00195 2.13477 0.853516 2.32227 0.720703 2.51367C0.587891 2.70117 0.484375 2.86719 0.410156 3.01172H0L0.521484 0.755859H7.76367ZM12.7207 5.46094C12.7207 5.92188 12.6426 6.38281 12.4863 6.84375C12.3301 7.30469 12.1035 7.70898 11.8066 8.05664C11.5059 8.41602 11.1426 8.70508 10.7168 8.92383C10.2949 9.13867 9.80469 9.24609 9.24609 9.24609C8.59766 9.24609 8.07031 9.03711 7.66406 8.61914C7.26172 8.20117 7.06055 7.63867 7.06055 6.93164C7.06055 6.41211 7.14648 5.92773 7.31836 5.47852C7.49023 5.0293 7.7207 4.63477 8.00977 4.29492C8.30273 3.95508 8.66406 3.68164 9.09375 3.47461C9.52734 3.26367 9.99609 3.1582 10.5 3.1582C11.1953 3.1582 11.7383 3.37109 12.1289 3.79688C12.5234 4.21875 12.7207 4.77344 12.7207 5.46094ZM11.5254 5.23828C11.5254 4.68359 11.4258 4.26758 11.2266 3.99023C11.0312 3.71289 10.748 3.57422 10.377 3.57422C10.0527 3.57422 9.74609 3.67383 9.45703 3.87305C9.17188 4.07227 8.92578 4.39648 8.71875 4.8457C8.55859 5.18555 8.44141 5.56445 8.36719 5.98242C8.29297 6.39648 8.25586 6.7793 8.25586 7.13086C8.25586 7.68945 8.35156 8.11328 8.54297 8.40234C8.73828 8.6875 9.03125 8.83008 9.42188 8.83008C9.76953 8.83008 10.0781 8.7207 10.3477 8.50195C10.6172 8.2832 10.8359 8.00586 11.0039 7.66992C11.1719 7.3418 11.3008 6.9668 11.3906 6.54492C11.4805 6.11914 11.5254 5.68359 11.5254 5.23828ZM17.2441 8.26758H17.2031C17.1172 8.3418 17.0059 8.43945 16.8691 8.56055C16.7324 8.67773 16.5898 8.78125 16.4414 8.87109C16.2539 8.98828 16.0801 9.07812 15.9199 9.14062C15.7637 9.20312 15.5703 9.23438 15.3398 9.23438C14.7734 9.23438 14.3281 9.03125 14.0039 8.625C13.6836 8.21484 13.5234 7.6582 13.5234 6.95508C13.5234 6.46289 13.6094 5.98828 13.7812 5.53125C13.957 5.07422 14.1953 4.66797 14.4961 4.3125C14.7891 3.96875 15.1406 3.69141 15.5508 3.48047C15.9648 3.26562 16.3965 3.1582 16.8457 3.1582C17.1152 3.1582 17.3828 3.19336 17.6484 3.26367C17.9141 3.33398 18.1328 3.41992 18.3047 3.52148L18.7617 1.5293C18.7852 1.42383 18.8008 1.3418 18.8086 1.2832C18.8203 1.22461 18.8262 1.16016 18.8262 1.08984C18.8262 0.949219 18.7969 0.841797 18.7383 0.767578C18.6836 0.693359 18.6055 0.638672 18.5039 0.603516C18.4102 0.568359 18.2812 0.544922 18.1172 0.533203C17.9531 0.521484 17.8047 0.507813 17.6719 0.492188L17.7539 0.134766L20.127 0L20.1855 0.0878906L18.5625 7.11328C18.5312 7.24219 18.498 7.39062 18.4629 7.55859C18.4316 7.72266 18.416 7.84766 18.416 7.93359C18.416 8.15625 18.4629 8.30859 18.5566 8.39062C18.6504 8.46875 18.8086 8.50781 19.0312 8.50781C19.1055 8.50781 19.2109 8.49609 19.3477 8.47266C19.4844 8.44922 19.5898 8.42383 19.6641 8.39648L19.5762 8.77148C19.248 8.91992 18.9766 9.02344 18.7617 9.08203C18.5469 9.14062 18.3477 9.16992 18.1641 9.16992C17.8828 9.16992 17.6582 9.09766 17.4902 8.95312C17.3262 8.80469 17.2441 8.57617 17.2441 8.26758ZM18.0703 4.53516C18.0625 4.42188 18.0332 4.3125 17.9824 4.20703C17.9316 4.09766 17.8672 4 17.7891 3.91406C17.6992 3.81641 17.582 3.73633 17.4375 3.67383C17.2969 3.60742 17.1289 3.57422 16.9336 3.57422C16.6328 3.57422 16.3477 3.66797 16.0781 3.85547C15.8125 4.04297 15.5781 4.29297 15.375 4.60547C15.1797 4.90625 15.0234 5.26953 14.9062 5.69531C14.7891 6.11719 14.7305 6.54102 14.7305 6.9668C14.7305 7.20508 14.7441 7.41602 14.7715 7.59961C14.7988 7.7832 14.8516 7.95312 14.9297 8.10938C15.0039 8.25391 15.1094 8.36914 15.2461 8.45508C15.3828 8.53711 15.5645 8.57812 15.791 8.57812C16.0059 8.57812 16.2383 8.51367 16.4883 8.38477C16.7422 8.25586 17.0234 8.03125 17.332 7.71094L18.0703 4.53516ZM24.0938 8.29688H24.0527C23.9668 8.36719 23.8633 8.45703 23.7422 8.56641C23.625 8.67188 23.4863 8.77344 23.3262 8.87109C23.1738 8.96875 23.0078 9.05273 22.8281 9.12305C22.6484 9.19727 22.4531 9.23438 22.2422 9.23438C21.6758 9.23438 21.2305 9.03125 20.9062 8.625C20.5859 8.21875 20.4258 7.66406 20.4258 6.96094C20.4258 6.47656 20.5156 6.00586 20.6953 5.54883C20.875 5.0918 21.123 4.68164 21.4395 4.31836C21.7402 3.9707 22.0977 3.69141 22.5117 3.48047C22.9258 3.26562 23.3516 3.1582 23.7891 3.1582C24.0664 3.1582 24.3301 3.19531 24.5801 3.26953C24.834 3.34375 25.0332 3.42773 25.1777 3.52148L26.25 3.24609L26.3203 3.33398L25.4297 7.11328C25.3984 7.23438 25.3652 7.38281 25.3301 7.55859C25.2988 7.73047 25.2832 7.85742 25.2832 7.93945C25.2832 8.16211 25.3301 8.3125 25.4238 8.39062C25.5176 8.46875 25.6758 8.50781 25.8984 8.50781C25.9727 8.50781 26.0781 8.49609 26.2148 8.47266C26.3516 8.44922 26.457 8.42383 26.5312 8.39648L26.4434 8.77148C26.0918 8.91211 25.8301 9.01367 25.6582 9.07617C25.4863 9.13867 25.2773 9.16992 25.0312 9.16992C24.75 9.16992 24.5273 9.08789 24.3633 8.92383C24.1992 8.75977 24.1094 8.55078 24.0938 8.29688ZM24.9316 4.59375C24.9316 4.46484 24.918 4.3418 24.8906 4.22461C24.8633 4.10742 24.8066 3.99805 24.7207 3.89648C24.6426 3.79883 24.5352 3.7207 24.3984 3.66211C24.2617 3.60352 24.0898 3.57422 23.8828 3.57422C23.5977 3.57422 23.3203 3.66797 23.0508 3.85547C22.7812 4.04297 22.5391 4.29492 22.3242 4.61133C22.1211 4.9082 21.9551 5.26758 21.8262 5.68945C21.6973 6.11133 21.6328 6.53906 21.6328 6.97266C21.6328 7.21094 21.6465 7.42188 21.6738 7.60547C21.7012 7.78906 21.7539 7.95703 21.832 8.10938C21.9062 8.25781 22.0137 8.37305 22.1543 8.45508C22.2949 8.53711 22.4727 8.57812 22.6875 8.57812C22.9062 8.57812 23.1348 8.51758 23.373 8.39648C23.6152 8.27148 23.8867 8.05469 24.1875 7.74609L24.9316 4.59375ZM31.0957 8.2207H31.0605C30.7012 8.52148 30.3594 8.75781 30.0352 8.92969C29.7109 9.10156 29.3418 9.1875 28.9277 9.1875C28.5527 9.1875 28.2559 9.08008 28.0371 8.86523C27.8184 8.64648 27.709 8.36133 27.709 8.00977C27.709 7.91602 27.7168 7.80469 27.7324 7.67578C27.748 7.54688 27.7852 7.35547 27.8438 7.10156L28.3008 5.27344C28.3438 5.09766 28.377 4.94531 28.4004 4.81641C28.4238 4.68359 28.4355 4.55664 28.4355 4.43555C28.4355 4.2168 28.3984 4.07227 28.3242 4.00195C28.2539 3.92773 28.1074 3.89062 27.8848 3.89062C27.7988 3.89062 27.6895 3.90625 27.5566 3.9375C27.4238 3.96875 27.3203 3.99414 27.2461 4.01367L27.334 3.63867C27.6387 3.50195 27.9062 3.39844 28.1367 3.32812C28.3711 3.25781 28.5586 3.22266 28.6992 3.22266C29.0117 3.22266 29.2422 3.29297 29.3906 3.43359C29.543 3.57422 29.6191 3.78516 29.6191 4.06641C29.6191 4.13672 29.6113 4.23242 29.5957 4.35352C29.5801 4.47461 29.5566 4.5957 29.5254 4.7168L28.9922 6.85547C28.9531 7.01953 28.9199 7.17383 28.8926 7.31836C28.8652 7.45898 28.8516 7.56641 28.8516 7.64062C28.8516 7.90234 28.9141 8.10938 29.0391 8.26172C29.168 8.41406 29.3555 8.49023 29.6016 8.49023C29.8867 8.49023 30.1641 8.41992 30.4336 8.2793C30.707 8.13867 30.9629 7.94531 31.2012 7.69922L32.1738 3.31641L33.1875 3.24609L33.2578 3.33398L32.25 7.92188C32.1016 8.59375 31.9121 9.16797 31.6816 9.64453C31.4512 10.1211 31.1816 10.5059 30.873 10.7988C30.5488 11.1074 30.1992 11.3301 29.8242 11.4668C29.4492 11.6035 29.0215 11.6719 28.541 11.6719C28.209 11.6719 27.9453 11.6484 27.75 11.6016C27.5547 11.5547 27.4004 11.4902 27.2871 11.4082C27.1738 11.3301 27.0977 11.2422 27.0586 11.1445C27.0195 11.0469 27 10.9492 27 10.8516C27 10.6836 27.0508 10.5352 27.1523 10.4062C27.2539 10.2773 27.4004 10.2129 27.5918 10.2129C27.7363 10.2129 27.8594 10.2539 27.9609 10.3359C28.0625 10.418 28.1445 10.5078 28.207 10.6055C28.2773 10.7109 28.3418 10.8301 28.4004 10.9629C28.459 11.0957 28.5059 11.2012 28.541 11.2793H28.6816C28.9043 11.2793 29.1387 11.2246 29.3848 11.1152C29.6348 11.0059 29.8633 10.8359 30.0703 10.6055C30.293 10.3555 30.4922 10.0332 30.668 9.63867C30.8477 9.24414 30.9902 8.77148 31.0957 8.2207ZM36.6504 0.626953C36.6504 0.779297 36.541 1.10742 36.3223 1.61133C36.1074 2.11133 35.8711 2.70898 35.6133 3.4043H35.2559C35.2754 2.74023 35.2852 2.17773 35.2852 1.7168C35.2852 1.25586 35.3008 0.939453 35.332 0.767578C35.3633 0.591797 35.4492 0.439453 35.5898 0.310547C35.7305 0.177734 35.9043 0.111328 36.1113 0.111328C36.2949 0.111328 36.4297 0.162109 36.5156 0.263672C36.6055 0.361328 36.6504 0.482422 36.6504 0.626953ZM38.3203 9.24023C37.7422 9.24023 37.2598 9.13867 36.873 8.93555C36.4902 8.72852 36.2988 8.45898 36.2988 8.12695C36.2988 7.9707 36.3555 7.82422 36.4688 7.6875C36.582 7.55078 36.7207 7.48242 36.8848 7.48242C37.041 7.48242 37.166 7.51953 37.2598 7.59375C37.3574 7.66406 37.4336 7.74805 37.4883 7.8457C37.5469 7.94727 37.5977 8.06836 37.6406 8.20898C37.6875 8.34961 37.7266 8.46484 37.7578 8.55469C37.8164 8.62109 37.8965 8.68359 37.998 8.74219C38.1035 8.79688 38.2539 8.82422 38.4492 8.82422C38.8711 8.82422 39.1895 8.71875 39.4043 8.50781C39.623 8.29688 39.7324 8.01172 39.7324 7.65234C39.7324 7.38672 39.6309 7.17578 39.4277 7.01953C39.2246 6.85938 38.9219 6.71289 38.5195 6.58008C38.375 6.5332 38.2051 6.46289 38.0098 6.36914C37.8145 6.27148 37.6582 6.16797 37.541 6.05859C37.4004 5.93359 37.2871 5.78516 37.2012 5.61328C37.1152 5.44141 37.0723 5.23828 37.0723 5.00391C37.0723 4.50391 37.2949 4.07227 37.7402 3.70898C38.1895 3.3418 38.7402 3.1582 39.3926 3.1582C39.5449 3.1582 39.709 3.16602 39.8848 3.18164C40.0605 3.19727 40.2539 3.24023 40.4648 3.31055C40.6484 3.37305 40.8047 3.4668 40.9336 3.5918C41.0625 3.71289 41.127 3.87109 41.127 4.06641C41.127 4.22656 41.0723 4.37305 40.9629 4.50586C40.8574 4.63477 40.7168 4.69922 40.541 4.69922C40.3965 4.69922 40.2773 4.66797 40.1836 4.60547C40.0898 4.54297 40.0117 4.45898 39.9492 4.35352C39.8867 4.24805 39.8359 4.13477 39.7969 4.01367C39.7578 3.89258 39.7148 3.77344 39.668 3.65625C39.5938 3.625 39.5273 3.60352 39.4688 3.5918C39.4102 3.58008 39.332 3.57422 39.2344 3.57422C38.8516 3.57422 38.5605 3.67773 38.3613 3.88477C38.166 4.08789 38.0684 4.33008 38.0684 4.61133C38.0684 4.88477 38.1562 5.0918 38.332 5.23242C38.5117 5.36914 38.8066 5.51172 39.2168 5.66016C39.748 5.85156 40.1328 6.07031 40.3711 6.31641C40.6133 6.5625 40.7344 6.86719 40.7344 7.23047C40.7344 7.82422 40.5059 8.30859 40.0488 8.68359C39.5918 9.05469 39.0156 9.24023 38.3203 9.24023ZM51.9609 2.43164C51.9609 2.9043 51.8555 3.32617 51.6445 3.69727C51.4375 4.06836 51.1699 4.37695 50.8418 4.62305C50.498 4.88086 50.1133 5.07617 49.6875 5.20898C49.2617 5.33789 48.8164 5.40234 48.3516 5.40234H47.3379L46.7402 7.96875C46.7324 8.00391 46.7266 8.04102 46.7227 8.08008C46.7188 8.11914 46.7168 8.15234 46.7168 8.17969C46.7168 8.26562 46.7324 8.3418 46.7637 8.4082C46.7949 8.47461 46.8574 8.52734 46.9512 8.56641C47.0098 8.59375 47.127 8.61914 47.3027 8.64258C47.4824 8.66602 47.6426 8.67969 47.7832 8.68359L47.6953 9.07031H44.127L44.2148 8.68359C44.3125 8.67578 44.4512 8.66211 44.6309 8.64258C44.8105 8.62305 44.9414 8.59766 45.0234 8.56641C45.1641 8.51172 45.2695 8.43359 45.3398 8.33203C45.4141 8.22656 45.4648 8.10547 45.4922 7.96875L46.8926 1.91016C46.9004 1.875 46.9062 1.83594 46.9102 1.79297C46.918 1.75 46.9219 1.70898 46.9219 1.66992C46.9219 1.58789 46.9062 1.51367 46.875 1.44727C46.8438 1.38086 46.7852 1.33008 46.6992 1.29492C46.5742 1.24805 46.4414 1.21289 46.3008 1.18945C46.1602 1.16602 46.0312 1.15039 45.9141 1.14258L46.002 0.755859H49.6992C50.3672 0.755859 50.9102 0.90625 51.3281 1.20703C51.75 1.50391 51.9609 1.91211 51.9609 2.43164ZM50.0859 4.01953C50.2461 3.78906 50.3594 3.54492 50.4258 3.28711C50.4922 3.02539 50.5254 2.78125 50.5254 2.55469C50.5254 2.375 50.5 2.20508 50.4492 2.04492C50.4023 1.88477 50.3203 1.74023 50.2031 1.61133C50.0859 1.48633 49.9355 1.38867 49.752 1.31836C49.5684 1.24414 49.3379 1.20703 49.0605 1.20703H48.2988L47.4492 4.92188H48.1113C48.5645 4.92188 48.9551 4.84766 49.2832 4.69922C49.6113 4.54688 49.8789 4.32031 50.0859 4.01953ZM54.8262 8.43164L54.7383 8.80664C54.3789 8.95117 54.0918 9.05078 53.877 9.10547C53.6621 9.16406 53.4785 9.19336 53.3262 9.19336C53.0137 9.19336 52.7793 9.11328 52.623 8.95312C52.4668 8.78906 52.3887 8.58789 52.3887 8.34961C52.3887 8.25977 52.3965 8.16602 52.4121 8.06836C52.4277 7.9707 52.4531 7.84766 52.4883 7.69922L53.1094 5.20898C53.1406 5.07227 53.1699 4.92578 53.1973 4.76953C53.2285 4.61328 53.2441 4.48047 53.2441 4.37109C53.2441 4.15234 53.207 4.00781 53.1328 3.9375C53.0625 3.86328 52.916 3.82617 52.6934 3.82617C52.6074 3.82617 52.4922 3.83984 52.3477 3.86719C52.207 3.89453 52.0996 3.91797 52.0254 3.9375L52.1133 3.5625C52.418 3.42578 52.6914 3.32422 52.9336 3.25781C53.1758 3.19141 53.3672 3.1582 53.5078 3.1582C53.8281 3.1582 54.0605 3.23438 54.2051 3.38672C54.3496 3.53906 54.4219 3.74414 54.4219 4.00195C54.4219 4.07227 54.4141 4.16797 54.3984 4.28906C54.3828 4.41016 54.3594 4.53125 54.3281 4.65234L53.7012 7.14258C53.6621 7.29492 53.627 7.44531 53.5957 7.59375C53.5684 7.73828 53.5547 7.85742 53.5547 7.95117C53.5547 8.17383 53.6035 8.32617 53.7012 8.4082C53.8027 8.49023 53.9648 8.53125 54.1875 8.53125C54.2617 8.53125 54.3672 8.52148 54.5039 8.50195C54.6445 8.48242 54.752 8.45898 54.8262 8.43164ZM55.2422 0.943359C55.2422 1.16602 55.1699 1.36133 55.0254 1.5293C54.8809 1.69336 54.7012 1.77539 54.4863 1.77539C54.2871 1.77539 54.1152 1.69727 53.9707 1.54102C53.8262 1.38086 53.7539 1.19922 53.7539 0.996094C53.7539 0.78125 53.8262 0.59375 53.9707 0.433594C54.1152 0.273438 54.2871 0.193359 54.4863 0.193359C54.709 0.193359 54.8906 0.269531 55.0312 0.421875C55.1719 0.570312 55.2422 0.744141 55.2422 0.943359ZM57.7793 9.23438C57.0957 9.23438 56.5547 9.03516 56.1562 8.63672C55.7617 8.23828 55.5645 7.67188 55.5645 6.9375C55.5645 6.44922 55.6387 5.98242 55.7871 5.53711C55.9395 5.08789 56.1504 4.68945 56.4199 4.3418C56.6895 3.99414 57.0293 3.71094 57.4395 3.49219C57.8535 3.26953 58.3125 3.1582 58.8164 3.1582C59.375 3.1582 59.7988 3.27734 60.0879 3.51562C60.3809 3.75 60.5273 4.04688 60.5273 4.40625C60.5273 4.67578 60.4629 4.91211 60.334 5.11523C60.209 5.31836 60.0195 5.41992 59.7656 5.41992C59.5547 5.41992 59.3965 5.36719 59.291 5.26172C59.1855 5.15625 59.1328 5.03906 59.1328 4.91016C59.1328 4.78516 59.1758 4.61523 59.2617 4.40039C59.3477 4.18164 59.416 4.00586 59.4668 3.87305C59.4238 3.76758 59.3281 3.69141 59.1797 3.64453C59.0312 3.59375 58.877 3.56836 58.7168 3.56836C58.1855 3.56836 57.7266 3.87891 57.3398 4.5C56.957 5.11719 56.7656 5.875 56.7656 6.77344C56.7656 7.32812 56.8887 7.76953 57.1348 8.09766C57.3848 8.42188 57.7207 8.58398 58.1426 8.58398C58.5215 8.58398 58.8574 8.48242 59.1504 8.2793C59.4473 8.07617 59.7305 7.78906 60 7.41797L60.334 7.66406C60.0645 8.08984 59.6973 8.45898 59.2324 8.77148C58.7715 9.08008 58.2871 9.23438 57.7793 9.23438ZM66.8965 3.82617C66.8965 3.99805 66.8281 4.1582 66.6914 4.30664C66.5586 4.45117 66.3926 4.52344 66.1934 4.52344C66.0645 4.52344 65.9375 4.50586 65.8125 4.4707C65.6875 4.43555 65.5508 4.38281 65.4023 4.3125C65.1875 4.43359 64.9648 4.58398 64.7344 4.76367C64.5078 4.93945 64.2598 5.1543 63.9902 5.4082C64.2129 5.98633 64.4004 6.46094 64.5527 6.83203C64.709 7.19922 64.8418 7.5 64.9512 7.73438C65.0918 8.02734 65.2461 8.23633 65.4141 8.36133C65.5859 8.48242 65.7734 8.54297 65.9766 8.54297C66.0703 8.54297 66.1992 8.5293 66.3633 8.50195C66.5273 8.4707 66.6543 8.43945 66.7441 8.4082L66.6562 8.79492C66.293 8.94336 66.0078 9.04297 65.8008 9.09375C65.5938 9.14453 65.3848 9.16992 65.1738 9.16992C64.9238 9.16992 64.709 9.10156 64.5293 8.96484C64.3535 8.82422 64.1836 8.57227 64.0195 8.20898C63.8594 7.86133 63.7168 7.51953 63.5918 7.18359C63.4668 6.84375 63.3438 6.52344 63.2227 6.22266L62.5371 6.80859L62.0332 9.07031H60.9434L62.6836 1.5293C62.7109 1.4082 62.7285 1.32422 62.7363 1.27734C62.748 1.23047 62.7539 1.17188 62.7539 1.10156C62.7539 0.960938 62.7305 0.853516 62.6836 0.779297C62.6367 0.701172 62.5703 0.642578 62.4844 0.603516C62.4023 0.568359 62.2988 0.544922 62.1738 0.533203C62.0488 0.521484 61.9219 0.507813 61.793 0.492188L61.875 0.134766L64.0488 0L64.1074 0.0878906L62.6777 6.1875H62.7012C63.1426 5.71094 63.543 5.29883 63.9023 4.95117C64.2656 4.59961 64.6445 4.24219 65.0391 3.87891C65.3203 3.62109 65.543 3.44531 65.707 3.35156C65.8711 3.25391 66.0469 3.20508 66.2344 3.20508C66.4336 3.20508 66.5938 3.26172 66.7148 3.375C66.8359 3.48438 66.8965 3.63477 66.8965 3.82617Z" fill="#111111"/>
</svg>
