<svg width="10" height="14" viewBox="0 0 10 14" fill="none" xmlns="http://www.w3.org/2000/svg">
<path fill-rule="evenodd" clip-rule="evenodd" d="M6.15997 7.8295L6.20347 7.807C6.46847 7.673 6.72347 7.599 6.91997 7.599C7.07847 7.599 7.19997 7.6455 7.28097 7.737C7.37247 7.84 7.40697 7.996 7.38247 8.201C7.23247 9.469 5.97747 10.6675 4.87447 11.245C3.60097 11.9115 2.18047 12.0585 1.89597 12.082C1.87947 12.083 1.86297 12.084 1.84447 12.084C1.86897 12.045 3.73797 9.024 6.15947 7.829M9.07047 0.614999C8.61447 2.111 7.49097 3.07 6.63147 3.685C6.40347 3.848 6.62847 3.97 6.63447 4.201C6.64197 4.4885 6.12497 4.8455 5.33697 5.7085C6.84197 2.791 9.07047 0.614999 9.07047 0.614999ZM1.65247 12.474C1.65497 12.474 1.70747 12.4725 1.79997 12.4675C2.26347 12.44 3.75047 12.3035 5.28697 11.629C6.09547 11.274 8.39597 9.934 8.39597 8.1335C8.39597 7.4515 7.98197 7.061 7.27747 7.061C6.20447 7.061 4.90697 7.928 3.45747 9.439C3.42047 9.486 3.35247 9.453 3.53947 9.148C3.90147 8.5575 4.72297 7.05 6.52097 5.275C7.57197 4.2375 7.03697 3.84 7.03697 3.84C7.03697 3.84 8.09847 3.3515 8.89747 2.309C9.37597 1.685 9.98247 0.460999 9.71797 0.127499C9.49897 -0.149001 9.05047 -0.00900102 8.04747 0.877499C6.79997 1.979 4.90947 5.1885 3.88297 7.1135C3.62997 7.5885 2.15447 10.1475 1.10447 11.9635C0.893558 11.8888 0.694384 11.7844 0.512966 11.6535L0.384466 11.88C0.489966 11.9905 0.686966 12.137 0.935466 12.256C0.426966 13.135 0.0524659 13.781 0.0299659 13.821C-0.0400341 13.9415 0.0244659 13.994 0.101966 13.9595L0.378466 13.839C1.08597 13.532 1.23347 13.404 1.28497 13.109C1.37797 12.569 1.65197 12.474 1.65247 12.474Z" fill="#959595"/>
</svg>
